<?xml version="1.0" encoding="utf-8"?>
<!-- Generator: Adobe Illustrator 19.1.0, SVG Export Plug-In . SVG Version: 6.00 Build 0)  -->
<svg version="1.1" id="レイヤー_1" xmlns="http://www.w3.org/2000/svg" xmlns:xlink="http://www.w3.org/1999/xlink" x="0px"
	 y="0px" viewBox="0 0 1280 196.2" style="enable-background:new 0 0 1280 196.2;" xml:space="preserve">
<g>
	<rect x="499.9" y="91.9" width="40.2" height="10.4"/>
	<path d="M926.9,52.3c-4.3-2.6-9.9-3.9-16.6-3.9c-6.9,0-12.6,1.3-16.9,3.9c-5.3,3.3-7.9,7.6-7.9,12.9v3.5h0c0,0.6,0.5,1.2,1.2,1.2
		h10.7c0.6,0,1.2-0.5,1.2-1.2h0v-1.9c0-2.7,0.8-4.5,2.6-5.7c2-1.4,5.1-2.2,9.2-2.2c3.9,0,7,0.7,9,2.2c1.8,1.3,2.6,3.1,2.6,5.7v74.8
		c0,3.7-1.5,5.2-2.6,6c-2,1.4-5.1,2.2-9,2.2c-4.1,0-7.2-0.7-9.2-2.2c-1.1-0.8-2.6-2.3-2.6-6v-31.3c0-3.7,1.5-5.2,2.6-6
		c2-1.4,5.1-2.2,9.2-2.2h1.9v0c0.6,0,1.2-0.5,1.2-1.2v-8c0-0.6-0.5-1.2-1.2-1.2l-1.9,0c-6.9,0-12.6,1.3-16.8,3.9
		c-6.6,3.9-8,9.2-8,13v34.5c0,3.8,1.4,9.1,8,13c4.3,2.6,9.9,3.9,16.8,3.9c6.8,0,12.4-1.3,16.6-3.9c6.6-3.9,8-9.2,8-13v-78
		C934.9,59.9,932.2,55.6,926.9,52.3z"/>
	<path d="M744.1,88.4V65.2c0-5.3-2.7-9.7-8-13c-4.3-2.6-9.9-3.9-16.6-3.9c-6.9,0-12.6,1.3-16.9,3.9c-5.3,3.3-7.9,7.6-7.9,12.9v3.5
		c0,0.6,0.5,1.2,1.2,1.2h10.7c0.6,0,1.2-0.5,1.2-1.2l0-1.9c0-2.7,0.8-4.5,2.6-5.7c2-1.4,5.1-2.2,9.2-2.2c3.9,0,7,0.7,9,2.2
		c1.8,1.3,2.6,3.1,2.6,5.7v21.6c0,1.9-1.5,3.5-3.5,3.5h-5.1v0h-3c-6.9,0-12.6,1.3-16.8,3.9c-6.6,3.9-8,9.2-8,13v34.5
		c0,3.8,1.4,9.1,8,13c4.3,2.6,9.9,3.9,16.8,3.9c6.8,0,12.4-1.3,16.6-3.9c6.6-3.9,8-9.2,8-13v-37.6c0-1.9,1.5-3.5,3.5-3.5h5.6V91.9
		h-5.6C745.6,91.9,744.1,90.3,744.1,88.4z M731.1,141.6c0,3.7-1.5,5.2-2.6,6c-2,1.4-5.1,2.2-9,2.2c-4.1,0-7.2-0.7-9.2-2.2
		c-1.1-0.8-2.6-2.3-2.6-6v-31.3c0-3.7,1.5-5.2,2.6-6c2-1.4,5.1-2.2,9.2-2.2h3v0h5.1c1.9,0,3.5,1.5,3.5,3.5V141.6z"/>
	<path d="M1078.7,138.6H1068c-0.6,0-1.2,0.5-1.2,1.2h0v1.9c0,3.7-1.5,5.2-2.6,6c-2,1.4-5.1,2.2-9,2.2c-4.1,0-7.2-0.7-9.2-2.2
		c-1.1-0.8-2.6-2.3-2.6-6V111c0-3,0.8-5.2,2.1-6.6l28.3-23.2c3.9-4.1,5.9-9.1,5.9-14.9V16.7c0-3.7-1.4-8.9-8-12.8
		c-4.3-2.6-9.9-3.9-16.6-3.9c-6.9,0-12.6,1.3-16.8,3.9c-6.6,3.9-8,9.1-8,12.8v59.2c0,0.6,0.5,1.2,1.2,1.2h10.7
		c0.6,0,1.2-0.5,1.2-1.2V18.5c0-3.7,1.5-5.2,2.6-5.9c2-1.4,5.1-2.2,9.2-2.2c3.9,0,7,0.7,9,2.2c1.1,0.8,2.6,2.3,2.6,5.9v47.8
		c0,3-0.8,5.2-2.1,6.6L1036.4,96c-3.9,4.1-5.9,9.1-5.9,14.9v32.3c0,3.8,1.4,9.1,8,13c4.3,2.6,9.9,3.9,16.8,3.9
		c6.8,0,12.4-1.3,16.6-3.9c6.6-3.9,8-9.2,8-13v-3.5h0C1079.8,139.1,1079.3,138.6,1078.7,138.6z"/>
	<rect x="446.3" y="91.9" width="30.1" height="10.4"/>
	<path d="M155.5,52.3c-4.3-2.6-9.9-3.9-16.6-3.9c-6.9,0-12.6,1.3-16.9,3.9c-5.3,3.3-7.9,7.6-7.9,12.9v78c0,3.8,1.4,9.1,8,13
		c4.3,2.6,9.9,3.9,16.8,3.9c6.8,0,12.4-1.3,16.6-3.9c6.6-3.9,8-9.2,8-13v-78C163.4,59.9,160.8,55.6,155.5,52.3z M150.4,141.6
		c0,3.7-1.5,5.2-2.6,6c-2,1.4-5.1,2.2-9,2.2c-4.1,0-7.2-0.7-9.2-2.2c-1.1-0.8-2.6-2.3-2.6-6V66.9c0-2.7,0.8-4.5,2.6-5.7
		c2-1.4,5.1-2.2,9.2-2.2c3.9,0,7,0.7,9,2.2c1.8,1.3,2.6,3.1,2.6,5.7V141.6z"/>
	<path d="M219.1,52.3c-4.3-2.6-9.9-3.9-16.6-3.9c-6.9,0-12.6,1.3-16.9,3.9c-5.3,3.3-7.9,7.6-7.9,12.9V158c0,0.6,0.5,1.2,1.2,1.2
		h10.7c0.6,0,1.2-0.5,1.2-1.2V66.9c0-2.7,0.8-4.5,2.6-5.7c2-1.4,5.1-2.2,9.2-2.2c3.9,0,7,0.7,9,2.2c1.8,1.3,2.6,3.1,2.6,5.7v1.9
		c0,0.6,0.5,1.2,1.2,1.2h10.7c0.6,0,1.2-0.5,1.2-1.2v-3.5C227,59.9,224.4,55.6,219.1,52.3z"/>
	<path d="M285.5,1h-10.7c-0.6,0-1.2,0.5-1.2,1.2v139.5c0,3.7-1.5,5.2-2.6,6c-2,1.4-5.1,2.2-9,2.2c-4.1,0-7.2-0.7-9.2-2.2
		c-1.1-0.8-2.6-2.3-2.6-6V66.9c0-2.7,0.8-4.5,2.6-5.7c2-1.4,5.1-2.2,9.2-2.2l1.9,0c0.6,0,1.2-0.5,1.2-1.2v-8.3
		c0-0.6-0.5-1.2-1.2-1.2H262c-6.9,0-12.6,1.3-16.9,3.9c-5.3,3.3-7.9,7.6-7.9,12.9v78c0,3.8,1.4,9.1,8,13c4.3,2.6,9.9,3.9,16.8,3.9
		c6.8,0,12.4-1.3,16.6-3.9c6.6-3.9,8-9.2,8-13V2.2C286.6,1.5,286.1,1,285.5,1z"/>
	<path d="M342.3,3.9C338,1.3,332.4,0,325.6,0c-6.9,0-12.6,1.3-16.8,3.9c-6.6,3.9-8,9.1-8,12.8v126.6c0,3.8,1.4,9.1,8,13
		c4.3,2.6,9.9,3.9,16.8,3.9c6.8,0,12.4-1.3,16.6-3.9c6.6-3.9,8-9.2,8-13v-16.5c0-0.6-0.5-1.2-1.2-1.2h-10.7c-0.6,0-1.2,0.5-1.2,1.2
		v14.9c0,3.7-1.5,5.2-2.6,6c-2,1.4-5.1,2.2-9,2.2c-4.1,0-7.2-0.7-9.2-2.2c-1.1-0.8-2.6-2.3-2.6-6V18.5c0-3.7,1.5-5.2,2.6-5.9
		c2-1.4,5.1-2.2,9.2-2.2c3.9,0,7,0.7,9,2.2c1.1,0.8,2.6,2.3,2.6,5.9v57.4c0,0.6,0.5,1.2,1.2,1.2h10.7c0.6,0,1.2-0.5,1.2-1.2V16.7
		C350.2,13,348.8,7.8,342.3,3.9z"/>
	<path d="M1135.4,3.9c-4.3-2.6-9.9-3.9-16.6-3.9c-6.9,0-12.6,1.3-16.8,3.9c-6.6,3.9-8,9.1-8,12.8v126.6c0,3.8,1.4,9.1,8,13
		c4.3,2.6,9.9,3.9,16.8,3.9c6.8,0,12.4-1.3,16.6-3.9c6.6-3.9,8-9.2,8-13V16.7C1143.4,13,1142,7.8,1135.4,3.9z M1130.4,141.6
		c0,3.7-1.5,5.2-2.6,6c-2,1.4-5.1,2.2-9,2.2c-4.1,0-7.2-0.7-9.2-2.2c-1.1-0.8-2.6-2.3-2.6-6V86.9l19.2,15.8c0,0,4.2,3.2,4.2,10.9
		V141.6z M1130.4,90.3l-19.6-16.1c-1-1-3.8-4.2-3.8-10.6V18.5c0-3.7,1.5-5.2,2.6-5.9c2-1.4,5.1-2.2,9.2-2.2c3.9,0,7,0.7,9,2.2
		c1.1,0.8,2.6,2.3,2.6,5.9V90.3z"/>
	<path d="M1175.5,4.1c-4.6-2.7-10.3-4.1-17.1-4.1h-1.9c-0.6,0-1.2,0.5-1.2,1.2v8.1c0,0.6,0.5,1.2,1.2,1.2l1.9,0
		c4.1,0,7.2,0.7,9.2,2.2c1.1,0.8,2.6,2.3,2.6,5.9V158c0,0.6,0.5,1.2,1.2,1.2h10.7c0.6,0,1.2-0.5,1.2-1.2V16.7
		C1183.2,11.4,1180.5,7.1,1175.5,4.1z"/>
	<path d="M98.7,1H88c-0.6,0-1.2,0.5-1.2,1.2v139.5c0,3-0.6,5.2-1.8,6.4c-1.2,1.2-2.9,1.8-5.2,1.8c-2.3,0-4-0.6-5.2-1.8
		c-1.1-1.1-1.7-3.3-1.7-6.4V49.5c0-0.6-0.5-1.2-1.2-1.2H61.1c-0.6,0-1.2,0.5-1.2,1.2v92.1c0,3-0.6,5.2-1.7,6.4
		c-1.2,1.2-2.9,1.8-5.2,1.8c-2.3,0-4-0.6-5.2-1.8c-1.1-1.1-1.7-3.3-1.7-6.4V86.3h0V17.9c0-5.2-2.2-9.5-6.6-12.9
		C36.3,2.3,31.8,1,26.3,1H0.9C0.2,1-0.2,1.7,0.1,2.4l4.3,8.5c0.2,0.3,0.5,0.5,0.8,0.5h21.1v0c2.3,0,4,0.6,5.2,1.8
		c1.1,1.1,1.7,3.3,1.7,6.4v3h0v120.7c0,5.2,2.2,9.5,6.6,12.9c3.3,2.6,7.7,3.9,13.3,3.9c5.1,0,9.4-1.2,12.8-3.6
		c0.4-0.3,0.9-0.3,1.2,0c3.4,2.4,7.7,3.6,12.8,3.6c5.6,0,10-1.3,13.3-3.9c4.4-3.4,6.7-7.8,6.7-13V2.2C99.8,1.5,99.3,1,98.7,1z"/>
	<path d="M668.5,114.8c-0.5-1.7,0.4-3.4,1.9-4.1c8.1-3.5,10-9.4,10-14.1V2.2c0-0.6-0.5-1.2-1.2-1.2h-10.7c-0.6,0-1.2,0.5-1.2,1.2
		v92.7c0,3.7-1.5,5.2-2.6,6c-2,1.4-5.1,2.2-9,2.2h-8.3c-1.9,0-3.5-1.5-3.5-3.5V86.3h0V17.9c0-5.2-2.2-9.5-6.6-12.9
		c-3.3-2.6-7.7-3.9-13.3-3.9h-25.3c-0.7,0-1.1,0.7-0.8,1.3l4.3,8.5c0.2,0.3,0.5,0.5,0.8,0.5h21.1v0c2.3,0,4,0.6,5.2,1.8
		c1.1,1.1,1.7,3.3,1.7,6.4V32h0v126c0,0.6,0.5,1.2,1.2,1.2h10.7c0.6,0,1.2-0.5,1.2-1.2v-41.1c0-1.9,1.5-3.5,3.5-3.5h4.2
		c1.5,0,2.9,1,3.3,2.4l12.9,42.5c0.1,0.5,0.6,0.8,1.1,0.8h10.8c0.8,0,1.3-0.7,1.1-1.5L668.5,114.8z"/>
	<path d="M1279.1,0h-57v0c-6.9,0-12.5,1.3-16.7,3.9c-6.6,3.9-8,9.1-8,12.8v126.6c0,3.8,1.4,9.1,8,13c4.3,2.6,9.9,3.9,16.8,3.9
		c6.8,0,12.4-1.3,16.6-3.9c6.6-3.9,8-9.2,8-13V65.1c0-3.8-1.4-9.1-8-13c-4.3-2.6-9.9-3.9-16.6-3.9c-4.4,0-8.4,0.6-11.8,1.8V18.5
		c0-3.7,1.5-5.2,2.6-5.9c2-1.4,5.1-2.2,9.2-2.2v0h52.6c0.3,0,0.7-0.2,0.8-0.5l4.3-8.5C1280.2,0.7,1279.8,0,1279.1,0z M1212.9,61
		c2-1.4,5.2-2.1,9.3-2.1c4,0,7,0.7,9,2.1c1.1,0.7,2.5,2.2,2.5,5.8v74.8c0,3.7-1.4,5.1-2.5,5.8c-2,1.4-5.1,2.1-9,2.1
		c-4.1,0-7.2-0.7-9.3-2.1c-1.1-0.7-2.5-2.2-2.5-5.8V66.9C1210.4,63.2,1211.9,61.8,1212.9,61z"/>
	<path d="M413.8,88.4V65.2c0-5.3-2.7-9.7-8-13c-4.3-2.6-9.9-3.9-16.6-3.9c-6.9,0-12.6,1.3-16.9,3.9c-5.3,3.3-7.9,7.6-7.9,12.9v3.5
		c0,0.6,0.5,1.2,1.2,1.2h10.7c0.6,0,1.2-0.5,1.2-1.2l0-1.9c0-2.7,0.8-4.5,2.6-5.7c2-1.4,5.1-2.2,9.2-2.2c3.9,0,7,0.7,9,2.2
		c1.8,1.3,2.6,3.1,2.6,5.7v21.6c0,1.9-1.5,3.5-3.5,3.5h-5.1v0h-3c-6.9,0-12.6,1.3-16.8,3.9c-6.6,3.9-8,9.2-8,13v34.5
		c0,3.8,1.4,9.1,8,13c4.3,2.6,9.9,3.9,16.8,3.9c6.8,0,12.4-1.3,16.6-3.9c6.6-3.9,8-9.2,8-13v-37.6c0-1.9,1.5-3.5,3.5-3.5h5.6V91.9
		h-5.6C415.4,91.9,413.8,90.3,413.8,88.4z M400.8,141.6c0,3.7-1.5,5.2-2.6,6c-2,1.4-5.1,2.2-9,2.2c-4.1,0-7.2-0.7-9.2-2.2
		c-1.1-0.8-2.6-2.3-2.6-6v-31.3c0-3.7,1.5-5.2,2.6-6c2-1.4,5.1-2.2,9.2-2.2h3v0h5.1c1.9,0,3.5,1.5,3.5,3.5V141.6z"/>
	<path d="M583.7,91.9h-20.1v10.4h15.9c0.3,0,0.7-0.2,0.8-0.5l4.3-8.5C584.8,92.6,584.3,91.9,583.7,91.9z"/>
	<path d="M776.5,102.2h37.7c0.3,0,0.7-0.2,0.8-0.5l4.3-8.5c0.3-0.6-0.1-1.3-0.8-1.3h-42V102.2z"/>
	<path d="M863.3,52.3c-4.3-2.6-9.9-3.9-16.6-3.9c-6.9,0-12.6,1.3-16.9,3.9c-5.3,3.3-7.9,7.6-7.9,12.9v16.9c0,6,2,11,6.2,15.2
		l27.8,22.8c1.6,1.6,2.4,3.8,2.4,6.8v14.8c0,3.7-1.5,5.2-2.6,6c-2,1.4-5.1,2.2-9,2.2c-4.1,0-7.2-0.7-9.2-2.2c-1.1-0.8-2.6-2.3-2.6-6
		v-16.5c0-0.6-0.5-1.2-1.2-1.2h-10.7c-0.6,0-1.2,0.5-1.2,1.2v18.2c0,3.8,1.4,9.1,8,13c4.3,2.6,9.9,3.9,16.8,3.9
		c6.8,0,12.4-1.3,16.6-3.9c6.6-3.9,8-9.2,8-13v-16.5c0-5.8-2-10.8-6.2-15.2l-27.8-22.8c-1.6-1.6-2.4-3.8-2.4-6.8V66.9
		c0-2.7,0.8-4.5,2.6-5.7c2-1.4,5.1-2.2,9.2-2.2c3.9,0,7,0.7,9,2.2c1.8,1.3,2.6,3.1,2.6,5.7v18.6c0,0.6,0.5,1.2,1.2,1.2h10.7
		c0.6,0,1.2-0.5,1.2-1.2V65.2C871.3,59.9,868.6,55.6,863.3,52.3z"/>
	<path d="M794.7,158c0,0.6,0.5,1.2,1.2,1.2h10.7c0.6,0,1.2-0.5,1.2-1.2v-50.5h-13V158z"/>
	<path d="M488.1,52.3c-3.3-2.6-7.7-3.9-13.3-3.9c-5.4,0-9.9,1.3-13.4,4c-3.5-2.7-8-4-13.4-4c-5.6,0-10,1.3-13.3,3.9
		c-4.4,3.4-6.7,7.8-6.7,13v26.6v10.4V158c0,0.6,0.5,1.2,1.2,1.2h10.7c0.6,0,1.2-0.5,1.2-1.2v-55.8V91.9v-25c0-2.9,0.6-5,1.7-6.2
		c1.2-1.2,2.9-1.7,5.2-1.7c2.3,0,4,0.6,5.2,1.7c1.2,1.2,1.8,3.2,1.8,6.2v19.8h13V66.9c0-2.9,0.6-5,1.8-6.2c1.2-1.2,2.9-1.7,5.2-1.7
		c2.3,0,4,0.6,5.2,1.7c1.2,1.2,1.8,3.2,1.8,6.2v25v10.4V158c0,0.6,0.5,1.2,1.2,1.2h10.7c0.6,0,1.2-0.5,1.2-1.2v-55.8V91.9V65.2
		C494.7,60.1,492.5,55.7,488.1,52.3z"/>
	<path d="M454.9,158c0,0.6,0.5,1.2,1.2,1.2h10.7c0.6,0,1.2-0.5,1.2-1.2v-50.5h-13V158z"/>
	<path d="M783.1,58.9c3.9,0,7,0.7,9,2.2c1.8,1.3,2.6,3.1,2.6,5.7v19.8h13V65.2c0-5.3-2.7-9.7-8-13c-4.3-2.6-9.9-3.9-16.6-3.9
		c-5.3,0-9.8,0.8-13.5,2.3v0c-2.7,1.4-4.9,0.8-5.9,0.4l-0.7-0.4l0,0l-4-2l0,0c-0.3-0.1-0.6,0-0.6,0.4l0,0l0,0v55.4h0V158
		c0,0.6,0.5,1.2,1.2,1.2h10.7c0.6,0,1.2-0.5,1.2-1.2v-53.6V66.9c0-2.7,0.8-4.5,2.6-5.7C775.9,59.7,779,58.9,783.1,58.9L783.1,58.9z"
		/>
	<g>
		<path d="M508.9,107.4v33.3v49c0,0.3,0.2,0.7,0.5,0.8l11.2,5.6c0.6,0.3,1.3-0.1,1.3-0.8v-54.5v-33.3H508.9z"/>
		<path d="M550.4,52.3c-4.3-2.6-9.9-3.9-16.6-3.9c-6.9,0-12.6,1.3-16.9,3.9c-5.3,3.3-7.9,7.6-7.9,12.9v21.4h13V66.9
			c0-2.7,0.8-4.5,2.6-5.7c2-1.4,5.1-2.2,9.2-2.2c3.9,0,7,0.7,9,2.2c1.8,1.3,2.6,3.1,2.6,5.7v25v10.4v39.4c0,3.7-1.5,5.2-2.6,5.9
			c-2,1.4-5.1,2.2-9,2.2h-1.9v0c-0.6,0-1.2,0.5-1.2,1.2v8.1c0,0.6,0.5,1.2,1.2,1.2v0h1.9c6.8,0,12.4-1.3,16.6-3.9
			c6.6-3.9,8-9.2,8-13v-41.1V91.9V65.2C558.3,59.9,555.7,55.6,550.4,52.3z"/>
	</g>
	<path d="M994.4,1H969c-5.6,0-10,1.3-13.3,3.9c-4.4,3.4-6.6,7.8-6.6,12.9v6.4V27v4.7v1.9v4c0,0.3,0.2,0.7,0.5,0.8l11.2,5.6
		c0.6,0.3,1.3-0.1,1.3-0.8v-5.2v-6.4V27v-2.7v-4.8c0-3,0.6-5.2,1.7-6.4c1.2-1.2,2.9-1.8,5.2-1.8v0h21.1c0.3,0,0.7-0.2,0.8-0.5
		l4.3-8.5C995.5,1.7,995.1,1,994.4,1z"/>
	<path d="M961.6,54l-11.2-5.6c-0.6-0.3-1.3,0.1-1.3,0.8v4.8v46.1v33.3V158c0,0.6,0.5,1.2,1.2,1.2H961c0.6,0,1.2-0.5,1.2-1.2v-24.5
		v-33.3V65.6V54.9C962.1,54.5,961.9,54.2,961.6,54z"/>
</g>
</svg>
